HIERARCHY
ROOT Hips
{
	OFFSET 0.0000 0.0000 0.0000
	CHANNELS 6 Xposition Yposition Zposition Zrotation Xrotation Yrotation
	JOINT Spine1
	{
		OFFSET -0.0137 5.0038 -0.0537
		CHANNELS 3 Zrotation Xrotation Yrotation
		JOINT Spine2
		{
			OFFSET -0.0000 7.1253 -0.0298
			CHANNELS 3 Zrotation Xrotation Yrotation
			JOINT Chest
			{
				OFFSET -0.0000 7.5501 -0.8160
				CHANNELS 3 Zrotation Xrotation Yrotation
				JOINT Neck1
				{
					OFFSET -0.1817 26.3113 -0.5533
					CHANNELS 3 Zrotation Xrotation Yrotation
					JOINT Neck2
					{
						OFFSET -0.0000 7.7094 2.3026
						CHANNELS 3 Zrotation Xrotation Yrotation
						JOINT Head
						{
							OFFSET -0.0000 6.1289 1.9537
							CHANNELS 3 Zrotation Xrotation Yrotation
							JOINT Jaw
							{
								OFFSET 0.0026 0.4756 3.0949
								CHANNELS 3 Zrotation Xrotation Yrotation
								End Site
								{
									OFFSET 0.0 1.0 0.0
								}
							}
							JOINT LeftEye
							{
								OFFSET 3.2064 5.3802 7.5869
								CHANNELS 3 Zrotation Xrotation Yrotation
								End Site
								{
									OFFSET 0.0 1.0 0.0
								}
							}
							JOINT RightEye
							{
								OFFSET -3.2224 5.3619 7.5582
								CHANNELS 3 Zrotation Xrotation Yrotation
								End Site
								{
									OFFSET 0.0 1.0 0.0
								}
							}
						}
					}
				}
				JOINT LeftShoulder
				{
					OFFSET 1.6217 23.2372 5.1134
					CHANNELS 3 Zrotation Xrotation Yrotation
					JOINT LeftArm
					{
						OFFSET 14.9198 0.0000 -5.5023
						CHANNELS 3 Zrotation Xrotation Yrotation
						JOINT LeftForeArm
						{
							OFFSET 28.7393 0.0000 -0.0026
							CHANNELS 3 Zrotation Xrotation Yrotation
							JOINT LeftHand
							{
								OFFSET 27.0940 -0.0000 0.0026
								CHANNELS 3 Zrotation Xrotation Yrotation
								JOINT LeftHandThumbEnd
								{
									OFFSET 12.2686 -3.2202 4.8331
									CHANNELS 3 Zrotation Xrotation Yrotation
									End Site
									{
										OFFSET 0.0 1.0 0.0
									}
								}
								JOINT LeftHandMiddleEnd
								{
									OFFSET 19.0120 -0.3129 -0.0340
									CHANNELS 3 Zrotation Xrotation Yrotation
									End Site
									{
										OFFSET 0.0 1.0 0.0
									}
								}
							}
						}
					}
				}
				JOINT RightShoulder
				{
					OFFSET -1.3801 23.1803 5.2142
					CHANNELS 3 Zrotation Xrotation Yrotation
					JOINT RightArm
					{
						OFFSET -15.0372 0.0000 -5.5456
						CHANNELS 3 Zrotation Xrotation Yrotation
						JOINT RightForeArm
						{
							OFFSET -28.7366 0.0000 -0.0026
							CHANNELS 3 Zrotation Xrotation Yrotation
							JOINT RightHand
							{
								OFFSET -27.1336 -0.0000 0.0026
								CHANNELS 3 Zrotation Xrotation Yrotation
								JOINT RightHandThumbEnd
								{
									OFFSET -12.2642 -3.2115 4.8040
									CHANNELS 3 Zrotation Xrotation Yrotation
									End Site
									{
										OFFSET 0.0 1.0 0.0
									}
								}
								JOINT RightHandMiddleEnd
								{
									OFFSET -19.0006 -0.3066 -0.0316
									CHANNELS 3 Zrotation Xrotation Yrotation
									End Site
									{
										OFFSET 0.0 1.0 0.0
									}
								}
							}
						}
					}
				}
			}
		}
	}
	JOINT LeftLeg
	{
		OFFSET 10.0432 -8.4345 2.5957
		CHANNELS 3 Zrotation Xrotation Yrotation
		JOINT LeftShin
		{
			OFFSET -0.0000 -43.2218 -0.8029
			CHANNELS 3 Zrotation Xrotation Yrotation
			JOINT LeftFoot
			{
				OFFSET 0.0000 -42.1551 -3.4815
				CHANNELS 3 Zrotation Xrotation Yrotation
				JOINT LeftToeBase
				{
					OFFSET 0.0000 -5.0595 13.2315
					CHANNELS 3 Zrotation Xrotation Yrotation
					End Site
					{
						OFFSET 0.0 1.0 0.0
					}
				}
			}
		}
	}
	JOINT RightLeg
	{
		OFFSET -10.0473 -8.2953 2.6203
		CHANNELS 3 Zrotation Xrotation Yrotation
		JOINT RightShin
		{
			OFFSET 0.0000 -43.3622 -0.8056
			CHANNELS 3 Zrotation Xrotation Yrotation
			JOINT RightFoot
			{
				OFFSET 0.0000 -42.1174 -3.4784
				CHANNELS 3 Zrotation Xrotation Yrotation
				JOINT RightToeBase
				{
					OFFSET -0.0000 -5.0796 13.2842
					CHANNELS 3 Zrotation Xrotation Yrotation
					End Site
					{
						OFFSET 0.0 1.0 0.0
					}
				}
			}
		}
	}
}
MOTION
Frames: 10
Frame Time: 0.033333
-334.7255 98.2844 -48.0202 3.0870 3.8701 8.0540 -4.4736 0.7146 -1.0248 -0.8391 -4.3816 -1.0659 0.3871 5.7770 -3.4148 4.4541 2.4078 0.9662 -0.8240 -3.5937 -0.5955 1.0312 -13.5671 -2.0771 0.0084 0.1329 -0.0318 0.6683 -10.5327 -3.9190 -0.6480 -10.5539 3.8528 -10.5084 13.0147 -9.6672 -56.7916 19.4727 -37.5772 -0.4885 0.1289 -26.2684 -11.6983 -7.2685 2.3979 -16.1032 10.9312 16.0093 -61.1180 1.5751 2.4099 20.8893 9.3572 9.5735 54.5516 9.3325 7.8608 -0.3139 0.0915 27.6783 5.5975 0.4564 -0.4749 16.0165 7.1960 -16.4408 50.1983 -3.7992 -5.0794 -2.6267 -4.4309 18.2274 0.0021 11.5376 -0.1746 -1.5637 -12.1237 -0.9235 1.6257 -0.6632 -1.9453 -4.7011 -34.1739 -31.3129 0.1654 29.9441 0.0414 3.7302 0.2959 -7.5388 -1.4564 -2.2860 0.9773
-337.2166 98.2481 -48.1157 3.4240 3.8229 8.0756 -4.5335 0.5355 -0.9790 -0.7930 -4.3774 -0.9514 0.2563 5.7827 -3.4197 4.2359 2.3906 1.0455 -0.8739 -3.5949 -0.6592 1.0397 -13.2237 -2.2153 0.0117 0.1274 -0.0059 0.6715 -10.5252 -3.8934 -0.6449 -10.5437 3.8780 -10.7074 13.0375 -9.4961 -56.6388 19.9697 -37.1134 -0.6559 0.0997 -25.1177 -12.1751 -6.4375 2.6875 -16.1639 10.9524 15.9991 -61.0459 1.6372 2.4474 20.7677 9.2945 9.5757 54.4793 9.6308 7.2681 -0.2045 0.0867 27.2820 5.8624 0.8715 -0.5913 16.0386 7.2118 -16.4282 50.1368 -3.8510 -5.0178 -1.3664 -5.1399 18.3089 -0.0039 11.5692 -0.2106 -3.0858 -11.6097 -1.0405 1.6205 -0.9002 -1.9828 -9.7509 -32.8955 -27.8411 0.3272 26.0387 0.3714 4.5085 1.2983 -6.6482 -1.4609 -2.2430 0.9614
-339.7802 98.1288 -48.1471 3.5685 3.8427 8.1016 -4.4405 0.3342 -0.8687 -0.7230 -4.3817 -0.8888 0.2016 5.7551 -3.3973 3.9265 2.4091 1.1665 -0.9114 -3.6180 -0.6733 1.0635 -12.9609 -2.3783 0.0140 0.1130 0.0107 0.6742 -10.5340 -3.8761 -0.6434 -10.5455 3.8917 -10.8439 12.9597 -9.3111 -56.5254 20.1502 -36.3153 -0.7431 0.0622 -24.3090 -12.5172 -5.9740 2.9853 -16.2452 10.9785 16.0089 -60.9688 1.7005 2.5008 20.5169 9.3126 9.5887 54.5075 10.0741 6.8427 -0.1584 0.0957 27.0633 6.3520 1.2408 -0.6589 16.0229 7.2204 -16.4254 50.0526 -3.9060 -4.9882 0.1762 -6.2247 18.4788 -0.0275 12.1244 -0.2680 -4.7196 -11.2481 -1.3086 1.6180 -1.1017 -1.9916 -14.3026 -31.1472 -24.5570 0.3906 22.3349 0.5961 5.1133 1.8877 -6.0432 -1.4736 -2.2020 0.9522
-342.5174 97.8792 -48.0868 3.6330 3.8705 8.1859 -4.2587 0.1526 -0.7452 -0.6513 -4.3908 -0.8660 0.1489 5.7143 -3.3364 3.6360 2.4660 1.2960 -0.9616 -3.6516 -0.6672 1.0516 -12.8290 -2.5562 0.0112 0.1034 0.0047 0.6718 -10.5484 -3.8814 -0.6475 -10.5484 3.8855 -10.8387 12.8883 -9.1525 -56.4083 20.0091 -35.1548 -0.7702 0.0445 -24.0059 -12.6177 -6.0444 3.2577 -16.2834 11.0056 16.0403 -60.9217 1.7433 2.5606 20.1828 9.4593 9.5559 54.6093 10.5233 6.5581 -0.1586 0.1073 27.0329 7.0804 1.6324 -0.6707 15.9971 7.2340 -16.4485 49.9443 -3.9676 -5.0180 1.9154 -7.6216 18.6636 -0.0636 13.2040 -0.3478 -6.5656 -11.0454 -1.6865 1.6154 -1.2573 -1.9806 -18.2946 -28.9958 -21.6628 0.3882 18.9191 0.7259 5.2724 1.6037 -5.8757 -1.4995 -2.1797 0.9479
-345.4721 97.4838 -47.9693 3.6428 3.9340 8.2328 -3.9970 -0.0123 -0.6101 -0.5905 -4.4191 -0.8569 0.0802 5.6815 -3.2562 3.3366 2.5082 1.4437 -1.0240 -3.6707 -0.6804 1.0184 -12.8074 -2.7391 0.0076 0.0960 -0.0095 0.6718 -10.5653 -3.8964 -0.6557 -10.5536 3.8727 -10.8096 12.8456 -8.9914 -56.1806 19.6012 -33.6387 -0.8027 0.0272 -24.0822 -12.4340 -6.4995 3.4197 -16.3219 10.9654 16.0358 -60.9147 1.7373 2.6146 19.8320 9.6876 9.5286 54.6781 10.8782 6.1970 -0.1203 0.1325 27.2299 7.8467 1.9039 -0.6381 15.9554 7.2548 -16.4810 49.8992 -4.0078 -5.0525 3.7923 -9.2726 18.7823 -0.1180 14.6716 -0.4418 -8.5243 -10.9755 -2.0643 1.6149 -1.3677 -1.9526 -21.5306 -26.6132 -19.2214 0.3341 15.7852 0.7719 4.8660 0.6230 -6.1196 -1.5336 -2.2297 0.9653
-348.6972 96.9574 -47.7584 3.6121 4.0488 8.1656 -3.6443 -0.1568 -0.5163 -0.5523 -4.4703 -0.7939 -0.0105 5.6480 -3.1677 2.9995 2.5352 1.6161 -1.0767 -3.6952 -0.7219 0.9585 -12.9072 -2.8735 0.0045 0.0889 -0.0216 0.6745 -10.5810 -3.9093 -0.6662 -10.5583 3.8614 -10.7842 12.9018 -8.7892 -55.8167 18.8374 -31.7240 -0.8448 -0.0203 -24.3885 -11.9872 -7.2622 3.4403 -16.3627 10.9242 16.0381 -60.9659 1.7045 2.6156 19.4326 10.0059 9.5399 54.7389 11.0672 5.8833 -0.0885 0.1582 27.4898 8.6165 2.0542 -0.5588 15.9636 7.3103 -16.5563 49.9548 -4.0112 -5.0797 5.8397 -11.1041 18.7411 -0.1847 16.3581 -0.5599 -10.5834 -10.9419 -2.3296 1.6163 -1.3759 -1.9136 -23.8869 -24.0427 -17.3001 0.2287 12.6175 0.7032 3.8361 -0.9203 -6.9530 -1.5628 -2.3371 0.9863
-352.1759 96.2943 -47.5146 3.5159 4.3013 7.8111 -3.2037 -0.2975 -0.4521 -0.5472 -4.5320 -0.7047 -0.0859 5.6145 -3.0221 2.5175 2.4372 1.7958 -1.0876 -3.7093 -0.7002 0.8610 -13.0750 -2.8918 0.0081 0.0786 -0.0101 0.6875 -10.5934 -3.8985 -0.6732 -10.5629 3.8728 -10.9226 12.9922 -8.5356 -55.2682 17.8338 -29.4066 -0.8908 -0.1128 -24.7404 -11.3201 -8.2674 3.2859 -16.4044 10.8023 15.9361 -60.9617 1.6318 2.5615 19.1365 10.3345 9.6631 54.5699 11.0228 5.5448 0.0097 0.1820 27.7065 9.1950 2.2389 -0.4495 15.9561 7.3758 -16.6225 50.0828 -3.9260 -5.1133 8.0966 -12.9705 18.5090 -0.2701 17.8618 -0.6932 -12.6987 -10.6930 -2.2576 1.6198 -1.2631 -1.8608 -25.0243 -21.8937 -16.2343 0.1033 9.6377 0.5386 2.7575 -2.4956 -8.3489 -1.5832 -2.4928 1.0188
-355.8212 95.5904 -47.2412 3.2189 4.8095 7.0779 -2.6017 -0.4507 -0.4761 -0.5665 -4.5788 -0.5503 -0.1004 5.5651 -2.8368 1.8376 2.1215 2.0245 -1.0133 -3.7285 -0.5124 0.7441 -13.3122 -2.7910 0.0141 0.0720 0.0152 0.7014 -10.6023 -3.8763 -0.6770 -10.5719 3.8986 -11.2594 12.9921 -8.2126 -54.5721 16.7662 -26.8907 -0.9384 -0.2331 -24.9543 -10.6481 -9.5105 2.9972 -16.4027 10.6994 15.8301 -60.8866 1.4938 2.4510 19.0467 10.5371 9.9778 54.1311 10.6807 5.2028 0.0597 0.1858 27.6618 9.6087 2.5168 -0.3413 15.9417 7.3907 -16.6398 50.2181 -3.8212 -5.1424 10.6847 -14.7404 18.0588 -0.3787 18.6464 -0.8289 -14.7433 -9.8242 -1.8391 1.6269 -1.1595 -1.8035 -24.5046 -21.0705 -16.3877 0.0213 7.6358 0.3805 2.1750 -3.4526 -9.8255 -1.5749 -2.6353 1.0714
-359.6505 94.9138 -47.0592 2.4803 5.6123 5.8941 -1.6886 -0.5840 -0.4310 -0.5675 -4.6377 -0.4231 -0.0077 5.5235 -2.6722 0.8772 1.6157 2.3712 -0.8247 -3.7743 -0.2104 0.6791 -13.5890 -2.4274 0.0196 0.0646 0.0401 0.7198 -10.6358 -3.8616 -0.6849 -10.6049 3.9335 -11.7410 12.8222 -7.8201 -53.8395 15.8395 -24.5090 -0.9167 -0.3231 -25.0578 -10.1551 -10.7686 2.7635 -16.3722 10.6825 15.8057 -60.8667 1.3662 2.2829 19.0831 10.5603 10.6148 53.4871 10.1279 5.0112 0.1020 0.1903 27.3039 9.6858 2.3814 -0.2387 15.7828 7.3133 -16.6054 50.1698 -3.7785 -5.1374 13.8372 -16.2217 17.3922 -0.5122 18.2260 -0.9196 -16.6908 -8.0501 -1.0008 1.6412 -1.1585 -1.7728 -22.0862 -22.1693 -17.8265 0.0660 7.7126 0.3271 3.4907 -2.7157 -10.3721 -1.5349 -2.7770 1.1425
-363.7450 94.3784 -47.0390 0.9946 6.7173 4.2872 -0.1902 -0.7229 -0.3475 -0.5735 -4.6631 -0.2570 0.2569 5.4776 -2.6211 -0.2760 0.7358 2.8414 -0.7020 -3.7725 0.2090 0.7196 -13.7647 -2.0628 0.0173 0.0380 0.0045 0.7441 -10.6566 -3.9053 -0.7152 -10.6403 3.9090 -12.4394 12.2880 -7.2265 -53.1322 15.2420 -22.5478 -0.8251 -0.2353 -24.8856 -9.7281 -11.6813 2.6533 -16.2694 10.5829 15.6641 -60.8013 1.3406 2.2570 19.1713 10.3630 11.4287 52.6000 9.6107 5.4241 0.1428 0.1542 26.6282 9.3118 1.6723 -0.2146 15.5907 7.1751 -16.4809 49.8413 -3.7730 -5.2114 17.8879 -17.3141 16.4449 -0.5924 16.3391 -0.8047 -18.3121 -5.0545 0.3218 1.6965 -1.0050 -1.7287 -17.6077 -25.3245 -20.7213 0.2095 10.4173 0.4753 8.8667 3.0064 -8.3698 -1.4909 -2.7797 1.1529
